<?xml version="1.0" standalone="no"?>
<!DOCTYPE svg PUBLIC "-//W3C//DTD SVG 20010904//EN"
 "http://www.w3.org/TR/2001/REC-SVG-20010904/DTD/svg10.dtd">
<svg version="1.0" xmlns="http://www.w3.org/2000/svg"
 width="169.000000pt" height="225.000000pt" viewBox="0 0 169.000000 225.000000"
 preserveAspectRatio="xMidYMid meet">

<g transform="translate(0.000000,225.000000) scale(0.100000,-0.100000)"
fill="#000000" stroke="none">
<path d="M846 2133 c-3 -21 -5 -56 -5 -78 1 -26 5 -14 10 34 9 79 6 108 -5 44z"/>
<path d="M764 2129 c-1 -20 2 -26 7 -17 11 16 12 48 2 48 -5 0 -8 -14 -9 -31z"/>
<path d="M915 2149 c-4 -6 -4 -13 -1 -16 3 -4 6 -1 6 6 0 7 5 9 10 6 6 -3 10
-1 10 4 0 14 -17 14 -25 0z"/>
<path d="M1001 2121 c-6 -11 -7 -22 -2 -25 5 -3 11 4 14 16 8 30 1 35 -12 9z"/>
<path d="M687 2110 c3 -11 9 -20 14 -20 5 0 6 -8 3 -17 -5 -14 -4 -15 4 -4 7
10 7 22 -1 38 -13 28 -27 31 -20 3z"/>
<path d="M616 2074 c1 -15 15 -39 31 -53 l27 -26 -22 26 c-33 38 -27 47 11 13
l32 -29 -35 40 c-19 22 -38 44 -41 48 -4 5 -5 -4 -3 -19z"/>
<path d="M1052 2080 c-6 -11 -12 -23 -12 -27 0 -5 5 -1 10 7 8 13 10 13 10 1
0 -11 4 -9 15 5 18 24 19 34 2 34 -7 0 -18 -9 -25 -20z"/>
<path d="M986 2077 c3 -10 9 -15 12 -12 3 3 0 11 -7 18 -10 9 -11 8 -5 -6z"/>
<path d="M782 2050 c0 -14 2 -19 5 -12 2 6 2 18 0 25 -3 6 -5 1 -5 -13z"/>
<path d="M803 2030 c0 -25 2 -35 4 -22 2 12 2 32 0 45 -2 12 -4 2 -4 -23z"/>
<path d="M863 2030 c0 -25 2 -35 4 -22 2 12 2 32 0 45 -2 12 -4 2 -4 -23z"/>
<path d="M942 2004 c-18 -37 -31 -68 -29 -70 2 -2 16 23 32 56 19 40 31 56 37
48 4 -7 8 -8 8 -3 0 6 -4 16 -8 22 -5 8 -19 -11 -40 -53z"/>
<path d="M896 2045 c-9 -26 -7 -32 5 -12 6 10 9 21 6 23 -2 3 -7 -2 -11 -11z"/>
<path d="M916 2035 c-3 -9 -6 -22 -5 -28 0 -7 5 -1 10 12 5 13 8 26 5 28 -2 2
-6 -3 -10 -12z"/>
<path d="M1068 1980 c-42 -39 -78 -67 -81 -63 -2 5 -2 2 -1 -4 2 -7 -1 -13 -5
-13 -5 0 -12 -8 -15 -17 -4 -10 18 6 48 36 31 30 58 53 61 50 2 -3 -16 -29
-40 -58 -25 -30 -43 -56 -40 -59 7 -7 56 39 50 47 -2 4 21 36 51 71 46 55 62
80 52 80 -2 0 -37 -32 -80 -70z m52 27 c0 -2 -10 -12 -22 -23 l-23 -19 19 23
c18 21 26 27 26 19z m-80 -111 c0 -2 -8 -10 -17 -17 -16 -13 -17 -12 -4 4 13
16 21 21 21 13z"/>
<path d="M560 2013 c14 -16 49 -54 79 -85 31 -32 51 -58 46 -58 -13 0 17 -20
30 -20 5 0 -16 26 -48 58 -71 71 -74 89 -6 30 28 -23 60 -50 72 -58 19 -13 20
-13 13 0 -16 27 -49 60 -56 55 -4 -2 -36 20 -71 50 -69 59 -97 72 -59 28z
m151 -100 c13 -16 12 -17 -3 -4 -10 7 -18 15 -18 17 0 8 8 3 21 -13z"/>
<path d="M1000 1995 l-34 -40 37 34 c20 19 37 30 37 25 0 -6 -11 -21 -25 -34
-14 -13 -25 -28 -25 -33 0 -5 16 10 35 33 19 23 35 47 35 53 0 8 -4 7 -9 -2
-5 -7 -10 -9 -12 -4 -2 5 -20 -10 -39 -32z"/>
<path d="M881 1994 c0 -11 3 -14 6 -6 3 7 2 16 -1 19 -3 4 -6 -2 -5 -13z"/>
<path d="M690 1992 c0 -7 18 -32 40 -55 22 -23 40 -36 40 -29 0 6 -4 12 -10
12 -5 0 -7 8 -4 18 4 12 3 13 -3 4 -10 -13 -29 2 -51 43 -6 11 -12 14 -12 7z"/>
<path d="M776 1973 c-6 -14 -5 -15 5 -6 7 7 10 15 7 18 -3 3 -9 -2 -12 -12z"/>
<path d="M1196 1978 c5 -7 2 -9 -9 -5 -9 3 -31 -6 -54 -25 -32 -26 -34 -29
-13 -24 24 7 24 6 6 -8 -11 -9 -16 -16 -12 -16 10 0 89 69 94 82 2 4 -1 8 -8
8 -6 0 -8 -5 -4 -12z m-16 -11 c0 -2 -10 -12 -22 -23 l-23 -19 19 23 c18 21
26 27 26 19z"/>
<path d="M810 1978 c0 -3 7 -21 15 -39 10 -24 14 -28 14 -14 0 11 -6 29 -14
39 -8 11 -15 17 -15 14z"/>
<path d="M490 1959 c0 -4 9 -13 19 -19 16 -8 19 -7 17 7 -3 17 -36 28 -36 12z"/>
<path d="M950 1961 c0 -6 4 -13 10 -16 6 -3 7 1 4 9 -7 18 -14 21 -14 7z"/>
<path d="M787 1953 c-3 -5 0 -19 8 -29 15 -20 18 -11 6 20 -4 11 -10 15 -14 9z"/>
<path d="M876 1945 c-3 -9 -6 -22 -5 -28 0 -7 5 -1 10 12 5 13 8 26 5 28 -2 2
-6 -3 -10 -12z"/>
<path d="M940 1933 c0 -6 -3 -20 -6 -30 -7 -17 -6 -17 12 -1 14 14 15 21 6 30
-8 8 -12 9 -12 1z"/>
<path d="M610 1905 c13 -14 26 -25 28 -25 3 0 -5 11 -18 25 -13 14 -26 25 -28
25 -3 0 5 -11 18 -25z"/>
<path d="M598 1889 c18 -19 29 -39 25 -43 -4 -4 1 -4 11 0 13 5 17 4 13 -3 -4
-6 4 -14 19 -17 39 -10 40 0 2 19 -18 10 -49 31 -68 49 l-35 31 33 -36z"/>
<path d="M1065 1910 c-3 -6 1 -7 9 -4 18 7 21 14 7 14 -6 0 -13 -4 -16 -10z"/>
<path d="M1208 1897 c-7 -8 -19 -12 -27 -9 -9 3 -11 0 -6 -8 5 -9 1 -10 -16
-5 -15 4 -19 3 -12 -2 9 -6 -9 -20 -57 -43 -74 -36 -92 -55 -38 -39 18 5 34 9
36 9 2 0 1 4 -2 8 -3 5 31 26 75 48 45 21 83 42 86 46 8 14 -25 9 -39 -5z"/>
<path d="M493 1874 c27 -14 52 -23 55 -20 3 3 -1 6 -9 6 -12 0 -11 2 1 11 12
8 10 9 -9 4 -18 -5 -22 -4 -16 6 6 9 3 11 -8 6 -10 -3 -17 -2 -17 3 0 6 -10
10 -22 10 -17 -1 -11 -7 25 -26z"/>
<path d="M1040 1855 c-19 -19 -30 -35 -24 -35 12 0 42 20 30 20 -5 0 1 11 14
25 13 14 21 25 19 25 -3 0 -20 -16 -39 -35z"/>
<path d="M1100 1860 c-8 -5 -10 -10 -5 -10 6 0 17 5 25 10 8 5 11 10 5 10 -5
0 -17 -5 -25 -10z"/>
<path d="M880 1830 c-8 -5 -10 -10 -5 -10 6 0 17 5 25 10 8 5 11 10 5 10 -5 0
-17 -5 -25 -10z"/>
<path d="M921 1836 c2 -2 15 -9 29 -15 24 -11 24 -11 6 3 -16 13 -49 24 -35
12z"/>
<path d="M749 1828 c-6 -21 -5 -37 2 -32 5 3 9 -1 9 -9 0 -10 10 -14 33 -12
46 4 42 29 -6 33 -20 2 -35 7 -32 13 4 5 4 9 1 9 -3 0 -6 -1 -7 -2z"/>
<path d="M829 1818 c7 -10 11 -31 9 -47 -2 -17 -1 -28 4 -25 15 9 8 61 -9 75
-16 13 -17 12 -4 -3z"/>
<path d="M435 1810 c4 -7 75 -1 75 6 0 3 -18 4 -39 2 -22 -1 -38 -5 -36 -8z"/>
<path d="M1238 1813 c6 -2 18 -2 25 0 6 3 1 5 -13 5 -14 0 -19 -2 -12 -5z"/>
<path d="M615 1800 c-28 -7 -27 -8 13 -9 27 -1 41 3 37 9 -7 11 -7 11 -50 0z"/>
<path d="M872 1796 c20 -22 75 -29 82 -11 2 7 2 16 -1 19 -11 11 -63 6 -63 -5
0 -8 -6 -7 -17 2 -17 12 -17 12 -1 -5z"/>
<path d="M1050 1765 l-25 -14 35 0 c23 -1 31 2 21 8 -11 7 -11 9 0 14 8 3 10
6 4 6 -5 0 -21 -6 -35 -14z"/>
<path d="M625 1760 l-40 -7 42 -2 c23 0 45 4 48 9 3 6 3 9 -2 9 -4 -1 -26 -5
-48 -9z"/>
<path d="M869 1747 c11 -14 11 -17 1 -17 -8 0 -11 -3 -7 -6 3 -3 12 -2 21 3
13 7 12 11 -7 22 -20 13 -21 13 -8 -2z"/>
<path d="M430 1740 c0 -5 13 -10 29 -10 17 0 33 5 36 10 4 6 -8 10 -29 10 -20
0 -36 -4 -36 -10z"/>
<path d="M1171 1746 c2 -2 29 -6 59 -9 36 -4 46 -3 30 3 -25 8 -97 13 -89 6z"/>
<path d="M620 1720 c14 -4 19 -8 11 -9 -8 -1 -12 -4 -9 -7 4 -3 19 1 35 10
l28 15 -45 0 c-37 -1 -41 -2 -20 -9z"/>
<path d="M1036 1722 c-3 -5 8 -6 25 -4 16 2 29 6 29 8 0 8 -49 4 -54 -4z"/>
<path d="M1113 1723 c9 -2 25 -2 35 0 9 3 1 5 -18 5 -19 0 -27 -2 -17 -5z"/>
<path d="M775 1694 c-164 -44 -296 -190 -367 -404 -27 -84 -31 -112 -36 -240
-5 -164 8 -249 56 -373 37 -95 89 -173 162 -240 69 -64 126 -94 210 -109 142
-27 294 45 394 185 157 220 196 517 104 794 -34 102 -104 219 -165 274 -21 19
-39 39 -40 44 -1 5 -35 22 -75 38 -72 29 -192 44 -243 31z m239 -53 c129 -66
237 -219 288 -406 16 -62 21 -111 22 -220 1 -77 -3 -149 -8 -160 -4 -11 -10
-34 -11 -50 -2 -17 -13 -56 -25 -87 -24 -64 -14 -63 -120 -16 -30 14 -85 51
-123 83 -88 75 -123 88 -188 66 -30 -10 -41 -17 -29 -19 10 -2 32 3 47 12 27
13 33 13 74 -5 50 -23 89 -56 89 -76 0 -20 -14 -16 -40 12 -13 14 -28 25 -33
25 -6 0 0 -11 12 -24 38 -40 20 -49 -29 -14 l-45 32 29 -32 c37 -40 24 -64
-16 -32 -33 26 -46 26 -23 0 10 -11 15 -23 12 -26 -9 -10 -39 5 -32 15 3 5 0
13 -7 17 -7 4 -10 4 -6 -1 10 -11 -10 -35 -30 -35 -13 0 -12 3 2 19 19 21 14
41 -9 41 -7 0 -15 5 -17 11 -2 5 -11 11 -20 13 -10 1 -21 5 -24 9 -11 11 -44
8 -44 -3 0 -13 -247 -136 -256 -127 -15 14 -52 162 -42 166 6 2 5 6 -2 11 -7
4 -16 41 -20 81 -37 329 129 669 363 745 24 8 74 13 118 11 63 -2 86 -7 143
-36z m-264 -859 c0 -13 -39 -46 -46 -39 -9 9 16 47 31 47 8 0 15 -4 15 -8z
m40 -19 c0 -10 -32 -43 -42 -43 -12 0 -10 24 4 38 13 13 38 16 38 5z m384 -79
c42 -20 76 -39 76 -41 0 -16 -67 -119 -105 -161 -163 -181 -393 -186 -563 -14
-53 55 -123 164 -112 175 3 3 51 28 108 56 l103 52 27 -19 c34 -24 73 -38 112
-41 19 -1 20 -8 20 -111 0 -91 3 -110 15 -110 12 0 15 19 15 108 0 105 1 107
26 119 14 6 32 9 40 6 7 -3 17 2 20 11 3 9 10 14 14 11 5 -3 24 3 42 13 32 19
34 19 60 0 14 -10 61 -34 102 -54z m-354 58 c0 -5 -9 -17 -20 -27 -19 -18 -20
-17 -20 2 0 11 3 23 7 26 9 10 33 9 33 -1z"/>
<path d="M810 1493 c-8 -3 -39 -19 -67 -36 -45 -26 -53 -36 -53 -60 0 -20 6
-30 20 -34 24 -6 24 -12 5 -37 -18 -24 -20 -87 -3 -104 6 -6 38 -17 70 -23
l58 -12 0 -133 c0 -134 0 -134 -23 -134 -13 0 -70 -13 -128 -29 -57 -16 -117
-31 -134 -34 l-30 -4 30 -1 c17 -1 77 12 134 28 105 30 151 37 151 22 0 -5
-16 -17 -35 -28 -37 -20 -42 -29 -22 -40 6 -4 9 -4 5 1 -11 12 86 75 115 75
14 0 71 -13 128 -30 60 -17 138 -32 184 -34 l80 -5 -78 10 c-43 5 -126 23
-185 39 -58 17 -118 30 -133 30 l-28 0 1 134 0 135 41 6 c23 4 57 13 76 21 32
13 33 16 29 57 -3 24 -24 73 -48 116 -55 93 -102 124 -160 104z m85 -35 c20
-17 45 -48 56 -70 l19 -38 -42 0 c-24 -1 -56 -7 -73 -15 -29 -14 -24 -14 38 1
45 11 93 -3 105 -32 7 -14 12 -34 12 -46 0 -18 -4 -20 -32 -14 -82 18 -136 18
-192 2 -31 -9 -61 -14 -66 -11 -18 11 -10 54 20 110 28 52 28 74 0 40 -17 -21
-40 -19 -40 3 0 25 35 56 90 81 59 27 63 26 105 -11z m-55 -239 c0 -17 -4 -20
-22 -15 -13 3 -31 6 -40 6 -26 0 -22 18 5 23 48 9 57 7 57 -14z m129 12 c9 -6
-2 -12 -38 -20 -65 -14 -61 -15 -61 9 0 17 7 20 43 20 23 0 48 -4 56 -9z"/>
<path d="M765 1300 c-3 -6 1 -7 9 -4 18 7 21 14 7 14 -6 0 -13 -4 -16 -10z"/>
<path d="M453 843 c15 -2 37 -2 50 0 12 2 0 4 -28 4 -27 0 -38 -2 -22 -4z"/>
<path d="M1150 1690 c8 -5 20 -10 25 -10 6 0 3 5 -5 10 -8 5 -19 10 -25 10 -5
0 -3 -5 5 -10z"/>
<path d="M630 1680 c-8 -5 -10 -10 -5 -10 6 -1 -6 -9 -25 -20 -19 -11 -31 -19
-27 -20 11 0 107 49 107 55 0 9 -34 5 -50 -5z"/>
<path d="M1056 1682 c-3 -5 17 -20 45 -32 50 -24 76 -45 42 -34 -15 5 -15 4 2
-7 10 -7 30 -25 43 -41 13 -15 31 -28 40 -27 12 0 11 3 -5 9 -22 9 -49 47 -40
57 13 12 50 -12 62 -40 9 -20 14 -25 15 -14 0 20 -42 67 -61 67 -6 0 -39 12
-72 27 -55 25 -58 28 -36 34 l24 7 -27 1 c-15 1 -29 -3 -32 -7z"/>
<path d="M1140 1670 c8 -5 20 -10 25 -10 6 0 3 5 -5 10 -8 5 -19 10 -25 10 -5
0 -3 -5 5 -10z"/>
<path d="M1225 1669 c-28 -8 -27 -8 8 -4 25 3 35 0 31 -7 -4 -7 -2 -8 5 -4 6
4 9 12 6 17 -7 10 -8 10 -50 -2z"/>
<path d="M436 1661 c-3 -4 6 -6 19 -3 14 2 25 6 25 8 0 8 -39 4 -44 -5z"/>
<path d="M503 1611 c-38 -18 -64 -54 -49 -68 3 -4 6 1 6 10 0 18 46 57 68 57
13 0 13 -3 0 -22 -8 -13 -26 -29 -39 -35 -18 -9 -20 -13 -7 -13 10 0 33 16 52
35 20 19 31 35 25 35 -6 0 -7 5 -4 10 9 14 -5 12 -52 -9z"/>
<path d="M403 1551 c-24 -23 -33 -42 -33 -65 0 -45 -20 -63 -36 -34 -12 23
-13 22 -28 -14 -19 -45 -20 -59 -4 -93 16 -36 -5 -58 -23 -24 -12 23 -12 23
-20 4 -13 -34 -10 -98 6 -115 9 -10 13 -25 9 -34 -6 -15 -8 -16 -24 -1 -16 14
-18 14 -24 0 -12 -31 -6 -72 14 -98 21 -26 27 -57 11 -57 -6 0 -13 5 -16 10
-11 18 -25 11 -25 -12 0 -17 3 -19 9 -9 12 19 34 3 28 -20 -3 -13 -1 -17 6
-12 7 4 20 9 30 10 19 3 23 -23 7 -47 -9 -13 -12 -12 -25 4 -10 14 -15 15 -15
6 0 -19 -17 -1 -23 25 -4 19 -5 18 -6 -2 0 -12 10 -30 24 -41 14 -11 25 -27
25 -36 0 -19 -5 -20 -31 -6 -23 13 -24 4 -8 -53 5 -20 21 -44 34 -53 34 -22
33 -46 0 -38 -25 6 -25 6 -12 -32 8 -24 26 -47 45 -59 36 -23 44 -56 12 -48
-26 7 -25 -5 5 -49 17 -25 34 -38 52 -40 21 -2 29 -9 32 -28 1 -14 12 -37 23
-52 11 -16 15 -28 10 -28 -15 0 -54 48 -47 59 3 6 -1 11 -9 11 -23 0 -20 -11
13 -48 20 -22 39 -32 58 -32 28 0 53 -15 53 -32 0 -4 -9 -8 -20 -8 -30 0 -24
-16 16 -40 25 -16 45 -21 68 -17 49 8 77 -24 34 -38 -22 -6 -22 -7 7 -20 17
-8 37 -14 45 -14 8 0 2 6 -15 13 -19 8 -25 15 -17 20 6 4 20 2 31 -4 25 -13
42 -13 18 1 -16 9 -16 12 -1 26 14 15 17 14 37 -6 13 -13 16 -21 9 -21 -8 0
-20 -7 -28 -15 -18 -17 -2 -20 27 -5 36 20 22 69 -31 104 -34 22 -53 21 -45
-4 5 -16 2 -20 -14 -20 -20 0 -25 12 -22 51 1 9 -13 29 -31 44 -33 28 -33 28
-36 6 -2 -14 -9 -21 -20 -19 -13 2 -16 12 -14 41 3 25 -3 46 -18 67 -25 35
-40 39 -40 10 0 -13 -5 -18 -16 -13 -9 3 -13 12 -8 22 15 35 15 58 -1 96 -16
36 -18 38 -30 21 -22 -29 -37 -10 -20 24 8 16 15 35 14 42 0 7 -4 3 -9 -9 -5
-13 -14 -23 -20 -23 -5 0 -10 -7 -10 -17 0 -14 -2 -14 -20 2 -20 18 -29 52
-11 40 5 -3 13 0 17 7 5 8 10 6 15 -8 5 -11 6 -4 3 19 -4 24 -2 37 5 37 6 0
11 -8 12 -17 0 -10 3 -13 5 -7 3 6 1 21 -4 34 l-9 24 -12 -22 c-7 -12 -16 -20
-21 -17 -4 3 -6 -4 -3 -15 3 -11 0 -20 -6 -20 -18 0 -13 35 9 63 21 26 26 42
11 33 -15 -10 -19 55 -4 69 20 21 15 30 -6 11 -17 -16 -19 -16 -25 0 -4 11 1
24 14 36 11 10 20 26 19 36 0 13 -3 11 -9 -5 -5 -13 -11 -23 -12 -23 -9 0 -1
71 10 82 20 20 14 33 -7 14 -15 -13 -20 -14 -24 -4 -3 7 -5 4 -4 -7 2 -21 -15
-34 -21 -16 -2 6 15 29 38 51 34 34 41 47 38 70 -3 16 0 32 6 35 6 3 -1 3 -15
0 -39 -7 -45 20 -9 35 19 8 34 25 44 51 21 53 21 62 -3 49 -26 -13 -31 -13
-31 5 0 8 11 17 25 21 23 6 75 66 75 86 0 4 -13 6 -30 6 -16 -1 -30 -5 -30
-10 0 -4 -4 -8 -10 -8 -20 0 -9 21 20 38 17 9 36 29 43 45 6 15 19 27 27 27
10 0 11 3 3 8 -6 4 -13 20 -15 36 l-3 30 -32 -33z m21 -29 c-4 -9 -8 -24 -8
-32 -1 -21 -30 -19 -34 3 -2 11 7 30 19 43 24 26 37 17 23 -14z m-102 -128
c-21 -39 -30 -17 -11 27 8 20 15 26 20 18 4 -7 0 -27 -9 -45z m88 7 c0 -6 -11
-23 -25 -38 l-25 -28 12 30 c15 36 38 57 38 36z m-50 -16 c0 5 3 5 7 2 7 -8
-25 -47 -39 -47 -9 0 -11 44 -1 53 3 4 12 2 20 -4 7 -6 13 -8 13 -4z m-81 -92
c-1 -10 -5 -31 -9 -48 -7 -27 -8 -25 -9 18 0 26 4 47 9 47 6 0 9 -8 9 -17z
m32 -21 c-6 -2 -11 -8 -11 -13 0 -6 5 -7 10 -4 14 9 12 -19 -2 -33 -31 -31
-38 5 -11 59 14 28 18 31 21 14 3 -10 -1 -21 -7 -23z m48 -11 c-6 -17 -16 -35
-23 -41 -10 -8 -12 -4 -8 17 5 30 19 53 33 53 4 0 3 -13 -2 -29z m-107 -147
c-5 -44 -22 -26 -22 25 0 26 3 31 13 23 8 -7 11 -25 9 -48z m41 23 c-3 -5 -10
-4 -15 1 -6 6 -7 16 -3 22 6 9 9 9 16 -1 4 -7 5 -17 2 -22z m37 -11 c0 -13 -7
-29 -15 -36 -8 -7 -15 -9 -15 -4 0 4 -5 3 -12 -4 -19 -19 -28 -14 -28 17 0 24
3 28 19 24 11 -3 22 -12 24 -22 3 -9 5 -1 6 17 1 36 21 45 21 8z m-35 -266
c-5 -8 -11 -8 -17 -2 -6 6 -7 16 -3 22 5 8 11 8 17 2 6 -6 7 -16 3 -22z m-34
-24 c1 -24 2 -26 7 -11 10 29 42 29 42 -1 0 -25 -15 -40 -25 -24 -4 6 -10 8
-15 5 -11 -7 -26 14 -34 47 -5 22 -3 26 9 22 9 -4 15 -19 16 -38z m31 -141
c10 -40 3 -43 -16 -6 -19 36 -20 44 -4 39 7 -3 15 -17 20 -33z m128 -125 c0
-23 -2 -22 -19 10 -10 19 -16 41 -13 49 7 18 31 -26 32 -59z m-52 24 c-10 -10
-28 6 -28 24 0 15 1 15 17 -1 9 -9 14 -19 11 -23z m-20 -37 l11 -32 -24 28
c-27 31 -33 49 -12 41 7 -2 18 -19 25 -37z m52 -9 c0 -22 -8 -23 -32 -1 -23
20 -23 31 0 35 19 4 32 -9 32 -34z m84 -66 c3 -10 2 -30 -2 -46 l-8 -29 -29
28 c-18 16 -23 25 -12 21 9 -3 17 0 17 6 0 7 5 6 15 -2 8 -7 15 -8 15 -2 0 5
-7 15 -15 22 -8 7 -15 19 -15 27 0 12 3 13 15 3 8 -6 17 -19 19 -28z m-46 -1
c3 -8 -1 -12 -9 -9 -7 2 -15 10 -17 17 -3 8 1 12 9 9 7 -2 15 -10 17 -17z
m149 -130 c0 -24 -5 -30 -30 -35 -32 -6 -95 23 -69 32 7 2 21 -3 31 -12 20
-18 41 -22 24 -5 -15 15 11 43 29 34 7 -4 3 2 -9 13 -13 11 -23 26 -23 33 0 7
9 4 23 -9 14 -14 24 -34 24 -51z m-57 24 c0 -8 -4 -15 -9 -15 -5 0 -11 7 -15
15 -3 9 0 15 9 15 8 0 15 -7 15 -15z m179 -69 c12 -15 10 -15 -19 -2 -18 7
-37 21 -42 30 -9 16 -8 16 19 2 16 -8 35 -22 42 -30z m-59 -12 c0 -17 -22 -14
-28 4 -2 7 3 12 12 12 9 0 16 -7 16 -16z"/>
<path d="M390 1489 c0 -5 5 -7 10 -4 6 3 10 8 10 11 0 2 -4 4 -10 4 -5 0 -10
-5 -10 -11z"/>
<path d="M1270 1550 c0 -28 -2 -29 -32 -23 -31 6 -32 5 -18 -13 28 -37 54 -64
61 -64 4 0 -6 14 -23 30 -17 17 -29 33 -26 35 8 8 48 -8 48 -19 0 -7 11 -23
25 -36 34 -31 33 -52 -1 -44 l-26 7 22 -42 c14 -28 31 -46 51 -53 16 -5 29
-16 29 -24 0 -17 -5 -17 -31 -3 -18 9 -19 8 -13 -18 9 -40 31 -72 59 -85 20
-9 22 -14 13 -40 -6 -16 -8 -41 -5 -56 5 -25 4 -25 -9 -7 -16 22 -19 55 -3 55
5 0 7 5 4 10 -3 6 -12 10 -20 10 -21 0 1 -81 29 -105 13 -11 21 -26 19 -33 -4
-10 -9 -9 -24 4 -16 15 -19 15 -19 2 0 -9 6 -18 14 -21 9 -4 14 -19 13 -41 -1
-37 -16 -40 -18 -3 -1 18 -2 19 -6 4 -3 -11 5 -29 17 -42 15 -16 20 -30 16
-42 -7 -17 -8 -17 -20 0 -16 21 -26 22 -26 1 0 -8 4 -13 9 -9 15 9 21 -11 14
-46 l-7 -34 -13 30 -14 30 6 -29 c4 -16 15 -41 26 -54 21 -27 26 -62 8 -62 -6
0 -8 9 -4 20 4 12 2 19 -4 18 -5 -2 -16 6 -24 16 -14 19 -15 18 -22 -13 -4
-18 -4 -35 -1 -38 3 -4 6 3 6 15 0 12 5 22 11 22 8 0 9 -11 5 -31 -3 -17 -6
-39 -6 -48 0 -14 -2 -14 -10 -1 -13 20 -13 4 0 -20 14 -25 -7 -38 -24 -15 -11
16 -15 13 -30 -25 -14 -36 -15 -48 -5 -73 10 -24 10 -30 -2 -38 -10 -6 -15 -3
-17 11 -9 55 -66 -25 -58 -82 3 -32 1 -38 -14 -38 -12 0 -20 9 -22 23 -3 21
-4 21 -36 -10 -22 -22 -32 -41 -32 -62 0 -24 -4 -31 -19 -31 -15 0 -18 5 -13
22 4 17 2 20 -12 15 -10 -4 -21 -7 -25 -7 -5 0 -20 -11 -35 -25 -31 -29 -34
-70 -7 -85 29 -15 45 -12 27 5 -8 8 -20 15 -27 15 -8 0 -5 7 6 20 18 20 51 28
40 10 -3 -5 0 -10 7 -10 8 -1 6 -6 -6 -15 -15 -11 -16 -15 -5 -15 8 0 20 5 26
11 6 6 17 8 24 3 10 -6 5 -11 -16 -20 -17 -7 -23 -13 -15 -13 8 0 29 6 45 14
29 13 29 14 8 20 -44 14 -16 46 33 38 23 -4 43 1 68 17 40 24 46 40 16 40 -18
0 -19 3 -10 20 7 13 21 20 41 20 22 0 40 9 60 31 33 35 36 49 13 49 -8 0 -12
-5 -9 -11 7 -11 -32 -59 -47 -59 -5 0 0 12 11 26 12 15 21 37 21 50 0 18 8 25
33 32 19 5 41 21 55 42 27 41 28 54 2 47 -30 -8 -26 27 4 41 27 12 50 42 61
81 7 22 5 23 -19 17 -33 -8 -37 18 -5 34 22 12 49 67 49 100 0 18 -3 19 -20
10 -16 -9 -22 -7 -27 6 -4 10 -2 19 5 22 21 7 42 33 41 50 0 12 -3 11 -9 -5
-13 -32 -17 -29 -16 14 2 39 21 57 29 26 3 -12 5 -8 6 10 1 29 -8 34 -27 15
-23 -23 -26 21 -3 46 14 15 21 35 21 64 0 42 -16 65 -26 38 -8 -21 -20 -20
-28 0 -4 9 0 24 9 34 8 9 15 23 15 31 0 11 -2 12 -9 1 -6 -10 -10 -4 -15 18
-8 43 -8 50 4 50 6 0 10 -10 10 -22 0 -12 3 -19 6 -15 3 3 3 19 -1 36 l-7 31
-18 -22 c-16 -20 -19 -21 -25 -6 -4 9 -2 25 4 37 15 27 14 45 -5 89 -15 36
-16 37 -28 14 -15 -29 -36 -11 -36 32 0 29 -42 96 -61 96 -5 0 -9 -13 -9 -30z
m58 -55 c-3 -23 -29 -27 -36 -5 -5 13 -3 13 11 1 11 -8 17 -9 17 -3 0 6 -9 16
-20 22 -11 6 -20 20 -20 32 0 21 0 21 25 -2 15 -14 25 -33 23 -45z m78 -101
l5 -39 -15 34 c-19 39 -22 71 -6 55 6 -6 13 -28 16 -50z m-46 15 c0 -5 -4 -9
-10 -9 -5 0 -10 7 -10 16 0 8 5 12 10 9 6 -3 10 -10 10 -16z m-22 -42 l11 -32
-24 28 c-27 31 -33 49 -12 41 7 -2 18 -19 25 -37z m52 -3 c0 -28 -7 -30 -32
-7 -18 17 -25 39 -9 28 5 -3 12 -1 16 5 10 16 25 1 25 -26z m20 -80 c0 -8 -4
-14 -10 -14 -5 0 -10 9 -10 21 0 11 5 17 10 14 6 -3 10 -13 10 -21z m-28 -45
c4 -24 2 -28 -8 -17 -7 7 -16 27 -20 43 -6 26 -5 28 8 17 9 -7 18 -26 20 -43z
m48 1 c0 -32 -9 -37 -28 -18 -14 14 -16 42 -2 33 6 -3 10 -1 10 4 0 6 5 11 10
11 6 0 10 -13 10 -30z m-1 -106 c-12 -16 -12 -17 3 -11 9 3 19 1 22 -6 2 -7 5
0 5 15 1 38 21 47 21 9 0 -42 -10 -67 -21 -49 -7 10 -9 9 -9 -4 0 -22 -13 -23
-29 -4 -15 18 -4 93 12 77 7 -7 6 -16 -4 -27z m13 -136 c-9 -9 -12 -7 -12 12
0 19 3 21 12 12 9 -9 9 -15 0 -24z m18 -22 c0 -7 -6 -21 -14 -31 -13 -18 -14
-18 -25 3 -7 13 -10 26 -7 30 8 13 46 11 46 -2z m-20 -100 c0 -17 -14 -29 -23
-20 -8 8 3 34 14 34 5 0 9 -6 9 -14z m26 -47 l-14 -34 -1 31 c-1 16 5 36 11
42 19 19 21 -1 4 -39z m-26 1 c0 -23 -16 -43 -29 -36 -20 13 -13 52 9 52 11 0
20 -7 20 -16z m5 -122 c-4 -13 -14 -30 -22 -38 -13 -13 -13 -11 -7 15 9 38 13
45 25 45 6 0 7 -10 4 -22z m-42 -1 c4 3 7 0 7 -8 0 -16 -19 -39 -32 -39 -4 0
-8 14 -8 31 0 25 3 29 13 20 8 -6 17 -8 20 -4z m-89 -120 c-21 -39 -29 -27
-14 19 9 25 15 32 20 23 5 -7 2 -25 -6 -42z m47 10 c-16 -16 -26 0 -10 19 9
11 15 12 17 4 2 -6 -1 -17 -7 -23z m32 -27 c-9 -16 -20 -30 -23 -31 -3 0 -17
-2 -32 -4 -21 -3 -28 1 -28 13 0 25 20 50 27 34 2 -6 9 -9 15 -6 6 4 8 -2 3
-16 -5 -15 -4 -20 4 -16 6 4 11 16 11 26 0 17 12 27 33 29 5 1 0 -12 -10 -29z
m-147 -89 c-18 -19 -22 -41 -5 -24 6 6 19 8 30 6 14 -4 16 -9 9 -23 -5 -10
-18 -20 -29 -23 -29 -7 -39 45 -15 81 11 17 19 22 22 14 2 -7 -3 -21 -12 -31z
m54 4 c0 -8 -7 -15 -15 -15 -16 0 -20 12 -8 23 11 12 23 8 23 -8z m-151 -107
c-13 -11 -18 -17 -11 -13 18 9 44 -19 29 -34 -17 -17 4 -13 24 5 10 9 24 14
31 12 25 -9 -37 -38 -68 -32 -24 4 -29 11 -29 34 0 30 37 80 44 59 2 -6 -7
-21 -20 -31z m55 -3 c-4 -8 -10 -15 -15 -15 -5 0 -9 7 -9 15 0 8 7 15 15 15 9
0 12 -6 9 -15z m-139 -45 c-8 -13 -56 -33 -63 -26 -2 3 11 14 29 25 34 21 46
21 34 1z m23 -32 c-6 -18 -28 -21 -28 -4 0 9 7 16 16 16 9 0 14 -5 12 -12z"/>
<path d="M475 1520 c4 -6 -7 -24 -24 -40 -16 -17 -25 -30 -21 -30 11 0 48 38
61 63 7 13 6 17 -6 17 -9 0 -13 -5 -10 -10z"/>
<path d="M342 855 c0 -16 2 -22 5 -12 2 9 2 23 0 30 -3 6 -5 -1 -5 -18z"/>
<path d="M770 292 c-15 -5 -12 -65 5 -89 15 -22 14 -23 -32 -47 -26 -13 -59
-36 -72 -50 l-24 -26 31 0 c19 0 35 -7 42 -17 9 -15 12 -16 17 -4 3 8 23 33
43 54 29 32 44 40 74 41 32 1 44 -5 76 -40 20 -22 40 -47 43 -55 5 -11 8 -11
17 4 7 10 23 17 42 17 l31 0 -24 26 c-13 14 -46 37 -72 50 -46 24 -47 25 -32
47 15 22 21 87 8 87 -48 3 -165 4 -173 2z m155 -32 c-11 -5 -42 -9 -70 -9 -27
0 -59 4 -70 9 -13 6 11 9 70 9 59 0 83 -3 70 -9z m-115 -55 c14 -19 14 -19 -2
-6 -10 7 -18 18 -18 24 0 6 1 8 3 6 1 -2 9 -13 17 -24z m75 15 c4 -6 -8 -10
-30 -10 -22 0 -34 4 -30 10 3 6 17 10 30 10 13 0 27 -4 30 -10z m45 7 c0 -2
-10 -12 -21 -23 -22 -19 -22 -19 -8 4 12 19 29 30 29 19z m-73 -59 c-3 -7 -5
-2 -5 12 0 14 2 19 5 13 2 -7 2 -19 0 -25z m-103 -43 c-36 -32 -54 -42 -54
-30 0 6 80 65 88 65 3 0 -12 -16 -34 -35z m235 -9 c19 -14 28 -26 20 -26 -8 1
-32 17 -54 37 -43 38 -23 32 34 -11z"/>
</g>
</svg>
